<?xml version="1.0" encoding="UTF-8"?>
<svg id="Layer_1" xmlns="http://www.w3.org/2000/svg" viewBox="0 0 279.88 300.19">
  <defs>
    <style>
      .cls-1 {
        fill: #11cfff;
      }
    </style>
  </defs>
  <path class="cls-1" d="M248.07,160.36c10.6-.02,21.21-.23,31.81-.41-2.88-74.17-67.19-122.95-140.31-122.95S2.06,86.42,0,161.4c5.36.84,10.93.89,16.08,1.02,10.23.25,20.38.9,30.61,1.6,8.69.6,5.07,13.68-3.64,13.19-13.87-.78-27.56-.94-42.71-1.81.9,11.89,3.42,23.61,7.51,34.81,13.36-5.13,25.99-12.21,39.31-17.46,8.22-3.24,11.75,9.99,3.64,13.19-12.78,5.04-24.88,11.74-37.62,16.8,22.77,46.6,72.22,77.44,126.79,77.44s103.18-30.32,126.21-76.26c-2.04-.69-3.98-1.43-5.69-2.04-9.14-3.29-17.99-7.48-27.24-10.46-8.36-2.69-4.79-15.9,3.64-13.19,7.77,2.49,15.22,5.99,22.85,8.84,3.95,1.48,7.93,2.95,11.99,4.09,4.39-11.75,7.16-24.33,7.99-37.54-10.55.18-21.1.4-31.65.41-8.82.01-8.82-13.67,0-13.68M161.51,200.02c-7.64-5.81-13.28-11.16-19.61-17.03-5.42,5.39-12.48,11.61-18.14,16.76-6.57,5.97-15.45-3.04-9.67-9.68,5.05-5.8,10.86-10.92,15.79-16.77-6.9-10.64-11.87-21.07-11.87-21.07,0,0-3.77-7.5-4.28-15.38-.41-6.32,1.06-9.96,4.31-11.36,10.12-4.38,16.75-3.32,24.5-3.12,7.93.2,20.83-.25,25,6.88,7.52,12.86-5.17,32.69-14.88,44,4.4,5.13,11.24,10.16,17.06,15.68,6.39,6.06-1.26,16.39-8.21,11.1"/>
  <path class="cls-1" d="M38.62,124.78c.17-15.32-.03-30.64-.1-45.96-.04-8.21-.05-16.43.18-24.65.18-6.28.59-12.56,1.28-18.81.24-1.99.27-2.26.09-.79.24-1.65.54-3.3.84-4.94.58-3.17,1.38-6.29,2.28-9.38l-19.68,11.17c2.78.77,5.52,1.67,8.22,2.69-1.19-.53-.89-.4.88.4,1.54.7,3.03,1.48,4.52,2.27,2.45,1.29,4.8,2.76,7.12,4.26.91.6,1.81,1.21,2.7,1.84,0,0,4.21,3.19,1.91,1.37,9.55,7.53,18.37,15.94,27.98,23.41v-22.63c-.37.5-.78.97-1.22,1.42-2.35,2.53,3.04-2.01-.03.1-2,1.37-4.23,2.41-6.42,3.42-3.96,1.83,3.09-1.23-1.03.43-1.23.5-2.48.97-3.72,1.44-2.37.91-4.74,1.81-7.09,2.76-12.6,5.11-22.66,14.24-34.9,20.08l24.08,13.82c-.02.29.61-5.67.22-2.93.32-2.28.77-4.54,1.23-6.8.89-4.37,2.03-8.68,3.15-12.99,2.52-9.77,4.5-19.54,5.33-29.62l-31.43,4.25c3.19,8.42,7.97,13.97,15.19,19.18,2.13,1.54,4.47,2.78,6.76,4.06,1.17.66,2.34,1.33,3.5,2.01.61.36,5.17,3.62,2.27,1.31l3.24-25.13c-1.09.81-2.24,1.54-3.44,2.18,3.33-1.8-1.39.27-2.34.52-4.04,1.05-8.1,1.83-12.09,3.12-8.29,2.67-13.56,11-11.17,19.68,2.24,8.13,11.38,13.85,19.68,11.18,8.62-2.78,17.99-3.51,25.51-9.04,3.5-2.57,6.16-5.22,7.35-9.56,1.38-5.02.21-12.12-4.11-15.57-4.66-3.72-9.41-6.7-14.57-9.63-.85-.48-6.29-4.19-3.22-1.77-.98-.77-1.83-1.68-2.67-2.59,2.88,3.14-.47-2.26.97,1.56-2.56-6.75-7.8-11.75-15.43-11.75-9.26,0-15.29,7.31-16,16,.02-.29-.61,5.67-.22,2.93-.32,2.28-.77,4.54-1.23,6.8-.89,4.37-2.03,8.68-3.15,12.99-2.52,9.77-4.5,19.54-5.33,29.62-.45,5.49,3.36,11.14,7.92,13.82,5.26,3.08,10.87,2.52,16.15,0,6.36-3.03,12.23-6.84,18.05-10.8,2.67-1.81,5.27-3.83,8.09-5.4.91-.51,1.87-.93,2.82-1.37-3.96,1.81-.17.09.56-.2,10.53-4.17,23.97-7.6,31.35-16.89,4.87-6.14,7.43-16.85,0-22.63-11.1-8.64-21.3-18.35-32.47-26.9C56.55,10.15,44.72,4.1,32.02.57,23.52-1.79,14.78,3.4,12.34,11.75c-6.23,21.33-5.91,44.17-5.82,66.19.07,15.61.28,31.24.1,46.85-.1,8.72,7.35,16,16,16s15.9-7.28,16-16M273.39,123c.61-13.61.15-27.28.09-40.9-.1-20.54-1.35-41.07-4.72-61.36-1.35-8.13-12.1-13.94-19.68-11.18-12.66,4.62-24.27,10.89-35.32,18.58-10.84,7.55-21.28,16.22-30.81,23.4-8.75,6.6-10.3,16.51-3.24,25.13,7.38,9,20.46,12.55,30.92,16.44,1.19.44,2.37.9,3.55,1.36-3.82-1.5-.37-.14.36.2,2.75,1.29,5.23,3.19,7.76,4.86,6.5,4.31,13.04,8.51,20.13,11.79,5.33,2.46,10.85,3.11,16.15,0,4.55-2.67,8.39-8.33,7.92-13.82-.8-9.53-2.63-18.78-5.05-28.01-2.18-8.3-4.64-17.85-5.19-24.33-.61-7.18-4.45-13.42-11.75-15.43-9.06-2.49-16.52,3.06-19.68,11.17.83-1.85.82-2-.02-.45,1.8-3.08.19-.37-.63.43-2.9,2.8,2.72-1.81-.7.48-1.06.71-2.19,1.34-3.3,1.98-5.48,3.14-10.57,6.11-15.59,10-5.12,3.96-6.42,14.26-2.5,19.39,8.99,11.75,22.57,16.57,37.11,16.82,8.72.15,16-7.39,16-16s-7.28-15.85-16-16c-.82-.01-6.16-.54-2.07.05-1.81-.26-3.58-.71-5.34-1.2-.87-.26-1.74-.55-2.59-.87,1.75.76,1.82.74.21-.05-1.53-.98-1.47-.85.15.41-1.25-1.26-1.2-1.03.16.7l-2.5,19.39c-2.98,2.31.6-.19,1.07-.49,1.12-.7,2.28-1.34,3.44-1.98,2.65-1.48,5.33-2.89,7.9-4.5,7.73-4.86,12.76-11.12,16.06-19.59l-31.43-4.25c.8,9.53,2.63,18.78,5.05,28.01,2.18,8.3,4.64,17.85,5.19,24.33l24.08-13.82c-12.18-5.63-22.34-14.58-34.78-19.63-4.9-1.99-9.9-3.69-14.8-5.66,3.48,1.4-.5-.27-1.01-.52-1.12-.53-2.19-1.12-3.27-1.73-.82-.47-3.8-2.79-.39-.03-.76-.61-1.39-1.34-2-2.09l-3.24,25.13c18.33-13.82,37.68-31.16,58.49-38.75l-19.68-11.17c.34,2.03.65,4.07.94,6.11-.42-2.97.36,3.28.43,3.84.57,5.08.97,10.17,1.32,15.27.62,9.2.86,18.41.89,27.63.04,13.62.52,27.29-.09,40.9-.39,8.72,7.57,16,16,16,9.02,0,15.61-7.29,16-16"/>
</svg>